<svg width="59" height="59" viewBox="0 0 59 59" fill="none" xmlns="http://www.w3.org/2000/svg">
<circle opacity="0.1" cx="29.5" cy="29.5" r="29.5" fill="#92D6FF"/>
<path d="M39 39C39 35.8174 37.683 32.7652 35.3388 30.5147C32.9946 28.2643 29.8152 27 26.5 27C23.1848 27 20.0054 28.2643 17.6612 30.5147C15.317 32.7652 14 35.8174 14 39L26.5 39H39Z" fill="#0075FF"/>
<ellipse cx="27.5" cy="19" rx="6.5" ry="6" fill="#0075FF"/>
<ellipse cx="36.5" cy="35" rx="9.5" ry="10" fill="#F4FBFF"/>
<path d="M38.0147 28.7026C38.5859 28.7026 39.1031 29.004 39.3887 29.4489C39.5277 29.6642 39.6203 29.9297 39.5972 30.2095C39.5817 30.4248 39.6512 30.6401 39.7747 30.841C40.1684 31.4509 41.0406 31.6805 41.7199 31.3361C42.4841 30.9199 43.449 31.1711 43.889 31.8815L44.4062 32.7282C44.8539 33.4386 44.6069 34.3499 43.835 34.7589C43.1789 35.1249 42.9473 35.9357 43.341 36.5528C43.4645 36.7466 43.6034 36.9116 43.8196 37.0121C44.0897 37.1484 44.2981 37.3637 44.4448 37.5789C44.7304 38.0238 44.7073 38.5692 44.4294 39.05L43.889 39.911C43.6034 40.3703 43.0708 40.6573 42.5227 40.6573C42.2526 40.6573 41.9515 40.5856 41.7045 40.442C41.5038 40.3201 41.2722 40.277 41.0252 40.277C40.261 40.277 39.6203 40.8726 39.5972 41.583C39.5972 42.4082 38.887 43.054 37.9993 43.054H36.9495C36.054 43.054 35.3439 42.4082 35.3439 41.583C35.3284 40.8726 34.6878 40.277 33.9235 40.277C33.6688 40.277 33.4372 40.3201 33.2443 40.442C32.9972 40.5856 32.6885 40.6573 32.426 40.6573C31.8702 40.6573 31.3376 40.3703 31.052 39.911L30.5194 39.05C30.2338 38.5835 30.2183 38.0238 30.5039 37.5789C30.6275 37.3637 30.859 37.1484 31.1215 37.0121C31.3376 36.9116 31.4766 36.7466 31.6078 36.5528C31.9938 35.9357 31.7622 35.1249 31.106 34.7589C30.3418 34.3499 30.0948 33.4386 30.5348 32.7282L31.052 31.8815C31.4997 31.1711 32.4569 30.9199 33.2288 31.3361C33.9004 31.6805 34.7727 31.4509 35.1663 30.841C35.2898 30.6401 35.3593 30.4248 35.3439 30.2095C35.3284 29.9297 35.4134 29.6642 35.56 29.4489C35.8456 29.004 36.3628 28.717 36.9263 28.7026H38.0147ZM37.4821 33.8548C36.2702 33.8548 35.2898 34.7589 35.2898 35.8855C35.2898 37.0121 36.2702 37.909 37.4821 37.909C38.694 37.909 39.6512 37.0121 39.6512 35.8855C39.6512 34.7589 38.694 33.8548 37.4821 33.8548Z" fill="#0075FF"/>
</svg>
