<svg width="1400" height="984" viewBox="0 0 1400 984" fill="none" xmlns="http://www.w3.org/2000/svg">
<mask id="mask0_617_969" style="mask-type:alpha" maskUnits="userSpaceOnUse" x="-16" y="-189" width="991" height="1182">
<path d="M-9.94288 992.14C2.91385 891.553 74.2827 686.397 256.904 670.469C439.526 654.54 507.645 453.301 518.877 354.672C530.513 254.56 592.765 58.9998 748.683 77.653C904.6 96.3063 960.841 -92.0082 969.471 -188.497" stroke="black" stroke-width="11"/>
</mask>
<g mask="url(#mask0_617_969)">
<rect x="-184.306" y="907.006" width="1632.09" height="377.87" transform="rotate(-50.3221 -184.306 907.006)" fill="url(#paint0_linear_617_969)"/>
</g>
<mask id="mask1_617_969" style="mask-type:alpha" maskUnits="userSpaceOnUse" x="23" y="-47" width="991" height="1182">
<path d="M29.0571 1134.14C41.9139 1033.55 113.283 828.397 295.904 812.469C478.526 796.54 546.645 595.301 557.877 496.672C569.513 396.56 631.765 201 787.683 219.653C943.6 238.306 999.841 49.9918 1008.47 -46.4971" stroke="black" stroke-width="11"/>
</mask>
<g mask="url(#mask1_617_969)">
<rect x="-145.306" y="1049.01" width="1632.09" height="377.87" transform="rotate(-50.3221 -145.306 1049.01)" fill="url(#paint1_linear_617_969)"/>
</g>
<mask id="mask2_617_969" style="mask-type:alpha" maskUnits="userSpaceOnUse" x="259" y="-52" width="991" height="1182">
<path d="M265.057 1129.14C277.914 1028.55 349.283 823.397 531.904 807.469C714.526 791.54 782.645 590.301 793.877 491.672C805.513 391.56 867.765 196 1023.68 214.653C1179.6 233.306 1235.84 44.9918 1244.47 -51.4971" stroke="black" stroke-width="11"/>
</mask>
<g mask="url(#mask2_617_969)">
<rect x="90.6942" y="1044.01" width="1632.09" height="377.87" transform="rotate(-50.3221 90.6942 1044.01)" fill="url(#paint2_linear_617_969)"/>
</g>
<mask id="mask3_617_969" style="mask-type:alpha" maskUnits="userSpaceOnUse" x="548" y="-77" width="991" height="1182">
<path d="M554.057 1104.14C566.914 1003.55 638.283 798.397 820.904 782.469C1003.53 766.54 1071.65 565.301 1082.88 466.672C1094.51 366.56 1156.76 171 1312.68 189.653C1468.6 208.306 1524.84 19.9918 1533.47 -76.4971" stroke="black" stroke-width="11"/>
</mask>
<g mask="url(#mask3_617_969)">
<rect x="379.694" y="1019.01" width="1632.09" height="377.87" transform="rotate(-50.3221 379.694 1019.01)" fill="url(#paint3_linear_617_969)"/>
</g>
<mask id="mask4_617_969" style="mask-type:alpha" maskUnits="userSpaceOnUse" x="548" y="138" width="991" height="1182">
<path d="M554.057 1319.14C566.914 1218.55 638.283 1013.4 820.904 997.469C1003.53 981.54 1071.65 780.301 1082.88 681.672C1094.51 581.56 1156.76 386 1312.68 404.653C1468.6 423.306 1524.84 234.992 1533.47 138.503" stroke="black" stroke-width="11"/>
</mask>
<g mask="url(#mask4_617_969)">
<rect x="379.694" y="1234.01" width="1632.09" height="377.87" transform="rotate(-50.3221 379.694 1234.01)" fill="url(#paint4_linear_617_969)"/>
</g>
<mask id="mask5_617_969" style="mask-type:alpha" maskUnits="userSpaceOnUse" x="530" y="456" width="991" height="1182">
<path d="M536.057 1637.14C548.914 1536.55 620.283 1331.4 802.904 1315.47C985.526 1299.54 1053.65 1098.3 1064.88 999.673C1076.51 899.561 1138.76 704 1294.68 722.653C1450.6 741.306 1506.84 552.992 1515.47 456.503" stroke="black" stroke-width="11"/>
</mask>
<g mask="url(#mask5_617_969)">
<rect x="361.694" y="1552.01" width="1632.09" height="377.87" transform="rotate(-50.3221 361.694 1552.01)" fill="url(#paint5_linear_617_969)"/>
</g>
<mask id="mask6_617_969" style="mask-type:alpha" maskUnits="userSpaceOnUse" x="465" y="747" width="991" height="1182">
<path d="M471.057 1928.14C483.914 1827.55 555.283 1622.4 737.904 1606.47C920.526 1590.54 988.645 1389.3 999.877 1290.67C1011.51 1190.56 1073.76 995 1229.68 1013.65C1385.6 1032.31 1441.84 843.992 1450.47 747.503" stroke="black" stroke-width="11"/>
</mask>
<g mask="url(#mask6_617_969)">
<rect x="296.694" y="1843.01" width="1632.09" height="377.87" transform="rotate(-50.3221 296.694 1843.01)" fill="url(#paint6_linear_617_969)"/>
</g>
<mask id="mask7_617_969" style="mask-type:alpha" maskUnits="userSpaceOnUse" x="-280" y="-170" width="991" height="1182">
<path d="M-273.943 1011.14C-261.086 910.553 -189.717 705.397 -7.0958 689.469C175.526 673.54 243.645 472.301 254.877 373.672C266.513 273.56 328.765 77.9998 484.683 96.653C640.6 115.306 696.841 -73.0082 705.471 -169.497" stroke="black" stroke-width="11"/>
</mask>
<g mask="url(#mask7_617_969)">
<rect x="-448.306" y="926.006" width="1632.09" height="377.87" transform="rotate(-50.3221 -448.306 926.006)" fill="url(#paint7_linear_617_969)"/>
</g>
<mask id="mask8_617_969" style="mask-type:alpha" maskUnits="userSpaceOnUse" x="-280" y="-527" width="991" height="1182">
<path d="M-273.943 654.14C-261.086 553.553 -189.717 348.397 -7.0958 332.469C175.526 316.541 243.645 115.301 254.877 16.6725C266.513 -83.4395 328.765 -279 484.683 -260.347C640.6 -241.694 696.841 -430.008 705.471 -526.497" stroke="black" stroke-width="11"/>
</mask>
<g mask="url(#mask8_617_969)">
<rect x="-448.306" y="569.006" width="1632.09" height="377.87" transform="rotate(-50.3221 -448.306 569.006)" fill="url(#paint8_linear_617_969)"/>
</g>
<mask id="mask9_617_969" style="mask-type:alpha" maskUnits="userSpaceOnUse" x="-713" y="-190" width="991" height="1182">
<path d="M-706.943 991.14C-694.086 890.553 -622.717 685.397 -440.096 669.469C-257.474 653.54 -189.355 452.301 -178.123 353.672C-166.487 253.56 -104.235 57.9998 51.6826 76.653C207.6 95.3063 263.841 -93.0082 272.471 -189.497" stroke="black" stroke-width="11"/>
</mask>
<g mask="url(#mask9_617_969)">
<rect x="-881.306" y="906.006" width="1632.09" height="377.87" transform="rotate(-50.3221 -881.306 906.006)" fill="url(#paint9_linear_617_969)"/>
</g>
<defs>
<linearGradient id="paint0_linear_617_969" x1="-184.306" y1="1095.94" x2="1447.79" y2="1095.94" gradientUnits="userSpaceOnUse">
<stop stop-color="#00CDDB"/>
<stop offset="0.249976" stop-color="#019DF1"/>
<stop offset="0.482619" stop-color="#047AFD"/>
<stop offset="0.652076" stop-color="#2C50E2"/>
<stop offset="0.815788" stop-color="#5329CA"/>
<stop offset="1" stop-color="#6913BE"/>
</linearGradient>
<linearGradient id="paint1_linear_617_969" x1="-145.306" y1="1237.94" x2="1486.79" y2="1237.94" gradientUnits="userSpaceOnUse">
<stop stop-color="#00CDDB"/>
<stop offset="0.249976" stop-color="#019DF1"/>
<stop offset="0.482619" stop-color="#047AFD"/>
<stop offset="0.652076" stop-color="#2C50E2"/>
<stop offset="0.815788" stop-color="#5329CA"/>
<stop offset="1" stop-color="#6913BE"/>
</linearGradient>
<linearGradient id="paint2_linear_617_969" x1="90.6942" y1="1232.94" x2="1722.79" y2="1232.94" gradientUnits="userSpaceOnUse">
<stop stop-color="#00CDDB"/>
<stop offset="0.249976" stop-color="#019DF1"/>
<stop offset="0.482619" stop-color="#047AFD"/>
<stop offset="0.652076" stop-color="#2C50E2"/>
<stop offset="0.815788" stop-color="#5329CA"/>
<stop offset="1" stop-color="#6913BE"/>
</linearGradient>
<linearGradient id="paint3_linear_617_969" x1="379.694" y1="1207.94" x2="2011.79" y2="1207.94" gradientUnits="userSpaceOnUse">
<stop stop-color="#00CDDB"/>
<stop offset="0.249976" stop-color="#019DF1"/>
<stop offset="0.482619" stop-color="#047AFD"/>
<stop offset="0.652076" stop-color="#2C50E2"/>
<stop offset="0.815788" stop-color="#5329CA"/>
<stop offset="1" stop-color="#6913BE"/>
</linearGradient>
<linearGradient id="paint4_linear_617_969" x1="379.694" y1="1422.94" x2="2011.79" y2="1422.94" gradientUnits="userSpaceOnUse">
<stop stop-color="#00CDDB"/>
<stop offset="0.249976" stop-color="#019DF1"/>
<stop offset="0.482619" stop-color="#047AFD"/>
<stop offset="0.652076" stop-color="#2C50E2"/>
<stop offset="0.815788" stop-color="#5329CA"/>
<stop offset="1" stop-color="#6913BE"/>
</linearGradient>
<linearGradient id="paint5_linear_617_969" x1="361.694" y1="1740.94" x2="1993.79" y2="1740.94" gradientUnits="userSpaceOnUse">
<stop stop-color="#00CDDB"/>
<stop offset="0.249976" stop-color="#019DF1"/>
<stop offset="0.482619" stop-color="#047AFD"/>
<stop offset="0.652076" stop-color="#2C50E2"/>
<stop offset="0.815788" stop-color="#5329CA"/>
<stop offset="1" stop-color="#6913BE"/>
</linearGradient>
<linearGradient id="paint6_linear_617_969" x1="296.694" y1="2031.94" x2="1928.79" y2="2031.94" gradientUnits="userSpaceOnUse">
<stop stop-color="#00CDDB"/>
<stop offset="0.249976" stop-color="#019DF1"/>
<stop offset="0.482619" stop-color="#047AFD"/>
<stop offset="0.652076" stop-color="#2C50E2"/>
<stop offset="0.815788" stop-color="#5329CA"/>
<stop offset="1" stop-color="#6913BE"/>
</linearGradient>
<linearGradient id="paint7_linear_617_969" x1="-448.306" y1="1114.94" x2="1183.79" y2="1114.94" gradientUnits="userSpaceOnUse">
<stop stop-color="#00CDDB"/>
<stop offset="0.249976" stop-color="#019DF1"/>
<stop offset="0.482619" stop-color="#047AFD"/>
<stop offset="0.652076" stop-color="#2C50E2"/>
<stop offset="0.815788" stop-color="#5329CA"/>
<stop offset="1" stop-color="#6913BE"/>
</linearGradient>
<linearGradient id="paint8_linear_617_969" x1="-448.306" y1="757.941" x2="1183.79" y2="757.941" gradientUnits="userSpaceOnUse">
<stop stop-color="#00CDDB"/>
<stop offset="0.249976" stop-color="#019DF1"/>
<stop offset="0.482619" stop-color="#047AFD"/>
<stop offset="0.652076" stop-color="#2C50E2"/>
<stop offset="0.815788" stop-color="#5329CA"/>
<stop offset="1" stop-color="#6913BE"/>
</linearGradient>
<linearGradient id="paint9_linear_617_969" x1="-881.306" y1="1094.94" x2="750.788" y2="1094.94" gradientUnits="userSpaceOnUse">
<stop stop-color="#00CDDB"/>
<stop offset="0.249976" stop-color="#019DF1"/>
<stop offset="0.482619" stop-color="#047AFD"/>
<stop offset="0.652076" stop-color="#2C50E2"/>
<stop offset="0.815788" stop-color="#5329CA"/>
<stop offset="1" stop-color="#6913BE"/>
</linearGradient>
</defs>
</svg>
