<svg width="227" height="221" viewBox="0 0 227 221" fill="none" xmlns="http://www.w3.org/2000/svg">
<mask id="mask0_45_207" style="mask-type:alpha" maskUnits="userSpaceOnUse" x="24" y="21" width="175" height="175">
<circle cx="111.5" cy="108.5" r="87.5" fill="#D9D9D9"/>
</mask>
<g mask="url(#mask0_45_207)">
<rect x="198.928" y="20.9283" width="175" height="174.857" transform="rotate(90 198.928 20.9283)" fill="url(#paint0_linear_45_207)" fill-opacity="0.45"/>
</g>
<g filter="url(#filter0_d_45_207)">
<circle cx="112" cy="109" r="92" fill="white"/>
<circle cx="112" cy="109" r="87" stroke="url(#paint1_linear_45_207)" stroke-width="10"/>
</g>
<path d="M74.63 105.7C74.63 104.464 74.906 103.36 75.458 102.388C76.022 101.404 76.784 100.642 77.744 100.102C78.716 99.55 79.802 99.274 81.002 99.274C82.406 99.274 83.636 99.634 84.692 100.354C85.748 101.074 86.486 102.07 86.906 103.342H84.008C83.72 102.742 83.312 102.292 82.784 101.992C82.268 101.692 81.668 101.542 80.984 101.542C80.252 101.542 79.598 101.716 79.022 102.064C78.458 102.4 78.014 102.88 77.69 103.504C77.378 104.128 77.222 104.86 77.222 105.7C77.222 106.528 77.378 107.26 77.69 107.896C78.014 108.52 78.458 109.006 79.022 109.354C79.598 109.69 80.252 109.858 80.984 109.858C81.668 109.858 82.268 109.708 82.784 109.408C83.312 109.096 83.72 108.64 84.008 108.04H86.906C86.486 109.324 85.748 110.326 84.692 111.046C83.648 111.754 82.418 112.108 81.002 112.108C79.802 112.108 78.716 111.838 77.744 111.298C76.784 110.746 76.022 109.984 75.458 109.012C74.906 108.04 74.63 106.936 74.63 105.7ZM94.6744 101.884C95.4304 101.884 96.1024 102.052 96.6904 102.388C97.2784 102.712 97.7344 103.198 98.0584 103.846C98.3944 104.482 98.5624 105.25 98.5624 106.15V112H96.0424V106.492C96.0424 105.7 95.8444 105.094 95.4484 104.674C95.0524 104.242 94.5124 104.026 93.8284 104.026C93.1324 104.026 92.5804 104.242 92.1724 104.674C91.7764 105.094 91.5784 105.7 91.5784 106.492V112H89.0584V98.68H91.5784V103.27C91.9024 102.838 92.3344 102.502 92.8744 102.262C93.4144 102.01 94.0144 101.884 94.6744 101.884ZM110.229 106.798C110.229 107.158 110.205 107.482 110.157 107.77H102.867C102.927 108.49 103.179 109.054 103.623 109.462C104.067 109.87 104.613 110.074 105.261 110.074C106.197 110.074 106.863 109.672 107.259 108.868H109.977C109.689 109.828 109.137 110.62 108.321 111.244C107.505 111.856 106.503 112.162 105.315 112.162C104.355 112.162 103.491 111.952 102.723 111.532C101.967 111.1 101.373 110.494 100.941 109.714C100.521 108.934 100.311 108.034 100.311 107.014C100.311 105.982 100.521 105.076 100.941 104.296C101.361 103.516 101.949 102.916 102.705 102.496C103.461 102.076 104.331 101.866 105.315 101.866C106.263 101.866 107.109 102.07 107.853 102.478C108.609 102.886 109.191 103.468 109.599 104.224C110.019 104.968 110.229 105.826 110.229 106.798ZM107.619 106.078C107.607 105.43 107.373 104.914 106.917 104.53C106.461 104.134 105.903 103.936 105.243 103.936C104.619 103.936 104.091 104.128 103.659 104.512C103.239 104.884 102.981 105.406 102.885 106.078H107.619ZM111.42 107.014C111.42 105.982 111.63 105.082 112.05 104.314C112.47 103.534 113.052 102.934 113.796 102.514C114.54 102.082 115.392 101.866 116.352 101.866C117.588 101.866 118.608 102.178 119.412 102.802C120.228 103.414 120.774 104.278 121.05 105.394H118.332C118.188 104.962 117.942 104.626 117.594 104.386C117.258 104.134 116.838 104.008 116.334 104.008C115.614 104.008 115.044 104.272 114.624 104.8C114.204 105.316 113.994 106.054 113.994 107.014C113.994 107.962 114.204 108.7 114.624 109.228C115.044 109.744 115.614 110.002 116.334 110.002C117.354 110.002 118.02 109.546 118.332 108.634H121.05C120.774 109.714 120.228 110.572 119.412 111.208C118.596 111.844 117.576 112.162 116.352 112.162C115.392 112.162 114.54 111.952 113.796 111.532C113.052 111.1 112.47 110.5 112.05 109.732C111.63 108.952 111.42 108.046 111.42 107.014ZM128.8 112L125.416 107.752V112H122.896V98.68H125.416V106.258L128.764 102.028H132.04L127.648 107.032L132.076 112H128.8ZM138.975 100.84C138.531 100.84 138.159 100.702 137.859 100.426C137.571 100.138 137.427 99.784 137.427 99.364C137.427 98.944 137.571 98.596 137.859 98.32C138.159 98.032 138.531 97.888 138.975 97.888C139.419 97.888 139.785 98.032 140.073 98.32C140.373 98.596 140.523 98.944 140.523 99.364C140.523 99.784 140.373 100.138 140.073 100.426C139.785 100.702 139.419 100.84 138.975 100.84ZM140.217 102.028V112H137.697V102.028H140.217ZM148.233 101.884C149.421 101.884 150.381 102.262 151.113 103.018C151.845 103.762 152.211 104.806 152.211 106.15V112H149.691V106.492C149.691 105.7 149.493 105.094 149.097 104.674C148.701 104.242 148.161 104.026 147.477 104.026C146.781 104.026 146.229 104.242 145.821 104.674C145.425 105.094 145.227 105.7 145.227 106.492V112H142.707V102.028H145.227V103.27C145.563 102.838 145.989 102.502 146.505 102.262C147.033 102.01 147.609 101.884 148.233 101.884Z" fill="#0075FF"/>
<defs>
<filter id="filter0_d_45_207" x="14" y="11" width="196" height="196" filterUnits="userSpaceOnUse" color-interpolation-filters="sRGB">
<feFlood flood-opacity="0" result="BackgroundImageFix"/>
<feColorMatrix in="SourceAlpha" type="matrix" values="0 0 0 0 0 0 0 0 0 0 0 0 0 0 0 0 0 0 127 0" result="hardAlpha"/>
<feMorphology radius="2" operator="dilate" in="SourceAlpha" result="effect1_dropShadow_45_207"/>
<feOffset/>
<feGaussianBlur stdDeviation="2"/>
<feComposite in2="hardAlpha" operator="out"/>
<feColorMatrix type="matrix" values="0 0 0 0 0 0 0 0 0 0 0 0 0 0 0 0 0 0 0.25 0"/>
<feBlend mode="normal" in2="BackgroundImageFix" result="effect1_dropShadow_45_207"/>
<feBlend mode="normal" in="SourceGraphic" in2="effect1_dropShadow_45_207" result="shape"/>
</filter>
<linearGradient id="paint0_linear_45_207" x1="198.928" y1="108.357" x2="373.928" y2="108.357" gradientUnits="userSpaceOnUse">
<stop stop-color="#00CDDB"/>
<stop offset="0.249976" stop-color="#019DF1"/>
<stop offset="0.482619" stop-color="#047AFD"/>
<stop offset="0.652076" stop-color="#2C50E2"/>
<stop offset="0.815788" stop-color="#5329CA"/>
<stop offset="1" stop-color="#6913BE"/>
</linearGradient>
<linearGradient id="paint1_linear_45_207" x1="112" y1="17" x2="112" y2="201" gradientUnits="userSpaceOnUse">
<stop stop-color="#00D3DA"/>
<stop offset="0.171875" stop-color="#00B4E9"/>
<stop offset="0.333333" stop-color="#0094F4"/>
<stop offset="0.510417" stop-color="#017EFF"/>
<stop offset="0.6875" stop-color="#245AEA"/>
<stop offset="0.854167" stop-color="#3C3FD8"/>
<stop offset="1" stop-color="#6D0EBA"/>
</linearGradient>
</defs>
</svg>
