<svg width="98" height="34" viewBox="0 0 98 34" fill="none" xmlns="http://www.w3.org/2000/svg">
<rect width="98" height="34" rx="7" fill="white"/>
<path d="M44.646 20.712H47.936V22H43.05V12.27H44.646V20.712ZM52.6167 22.126C51.8887 22.126 51.2307 21.9627 50.6427 21.636C50.0547 21.3 49.5927 20.8333 49.2567 20.236C48.9207 19.6293 48.7527 18.9293 48.7527 18.136C48.7527 17.352 48.9254 16.6567 49.2707 16.05C49.616 15.4433 50.0874 14.9767 50.6847 14.65C51.282 14.3233 51.9494 14.16 52.6867 14.16C53.424 14.16 54.0914 14.3233 54.6887 14.65C55.286 14.9767 55.7574 15.4433 56.1027 16.05C56.448 16.6567 56.6207 17.352 56.6207 18.136C56.6207 18.92 56.4434 19.6153 56.0887 20.222C55.734 20.8287 55.2487 21.3 54.6327 21.636C54.026 21.9627 53.354 22.126 52.6167 22.126ZM52.6167 20.74C53.0274 20.74 53.41 20.642 53.7647 20.446C54.1287 20.25 54.4227 19.956 54.6467 19.564C54.8707 19.172 54.9827 18.696 54.9827 18.136C54.9827 17.576 54.8754 17.1047 54.6607 16.722C54.446 16.33 54.1614 16.036 53.8067 15.84C53.452 15.644 53.0694 15.546 52.6587 15.546C52.248 15.546 51.8654 15.644 51.5107 15.84C51.1654 16.036 50.89 16.33 50.6847 16.722C50.4794 17.1047 50.3767 17.576 50.3767 18.136C50.3767 18.9667 50.5867 19.6107 51.0067 20.068C51.436 20.516 51.9727 20.74 52.6167 20.74ZM61.3064 14.16C61.9038 14.16 62.4311 14.2813 62.8884 14.524C63.3551 14.7573 63.7191 15.0513 63.9804 15.406V14.286H65.5904V22.126C65.5904 22.8353 65.4411 23.4653 65.1424 24.016C64.8438 24.576 64.4098 25.0147 63.8404 25.332C63.2804 25.6493 62.6084 25.808 61.8244 25.808C60.7791 25.808 59.9111 25.5607 59.2204 25.066C58.5298 24.5807 58.1378 23.918 58.0444 23.078H59.6264C59.7478 23.4793 60.0044 23.8013 60.3964 24.044C60.7978 24.296 61.2738 24.422 61.8244 24.422C62.4684 24.422 62.9864 24.226 63.3784 23.834C63.7798 23.442 63.9804 22.8727 63.9804 22.126V20.838C63.7098 21.202 63.3411 21.51 62.8744 21.762C62.4171 22.0047 61.8944 22.126 61.3064 22.126C60.6344 22.126 60.0184 21.958 59.4584 21.622C58.9078 21.2767 58.4691 20.8007 58.1424 20.194C57.8251 19.578 57.6664 18.8827 57.6664 18.108C57.6664 17.3333 57.8251 16.6473 58.1424 16.05C58.4691 15.4527 58.9078 14.9907 59.4584 14.664C60.0184 14.328 60.6344 14.16 61.3064 14.16ZM63.9804 18.136C63.9804 17.604 63.8684 17.142 63.6444 16.75C63.4298 16.358 63.1451 16.0593 62.7904 15.854C62.4358 15.6487 62.0531 15.546 61.6424 15.546C61.2318 15.546 60.8491 15.6487 60.4944 15.854C60.1398 16.05 59.8504 16.344 59.6264 16.736C59.4118 17.1187 59.3044 17.576 59.3044 18.108C59.3044 18.64 59.4118 19.1067 59.6264 19.508C59.8504 19.9093 60.1398 20.2173 60.4944 20.432C60.8584 20.6373 61.2411 20.74 61.6424 20.74C62.0531 20.74 62.4358 20.6373 62.7904 20.432C63.1451 20.2267 63.4298 19.928 63.6444 19.536C63.8684 19.1347 63.9804 18.668 63.9804 18.136ZM75.7614 22.098C74.8561 22.098 74.0208 21.888 73.2554 21.468C72.4994 21.0387 71.8974 20.446 71.4494 19.69C71.0108 18.9247 70.7914 18.066 70.7914 17.114C70.7914 16.162 71.0108 15.308 71.4494 14.552C71.8974 13.796 72.4994 13.208 73.2554 12.788C74.0208 12.3587 74.8561 12.144 75.7614 12.144C76.6761 12.144 77.5114 12.3587 78.2674 12.788C79.0328 13.208 79.6348 13.796 80.0734 14.552C80.5121 15.308 80.7314 16.162 80.7314 17.114C80.7314 18.066 80.5121 18.9247 80.0734 19.69C79.6348 20.446 79.0328 21.0387 78.2674 21.468C77.5114 21.888 76.6761 22.098 75.7614 22.098ZM75.7614 20.712C76.4054 20.712 76.9794 20.5673 77.4834 20.278C77.9874 19.9793 78.3794 19.5593 78.6594 19.018C78.9488 18.4673 79.0934 17.8327 79.0934 17.114C79.0934 16.3953 78.9488 15.7653 78.6594 15.224C78.3794 14.6827 77.9874 14.2673 77.4834 13.978C76.9794 13.6887 76.4054 13.544 75.7614 13.544C75.1174 13.544 74.5434 13.6887 74.0394 13.978C73.5354 14.2673 73.1388 14.6827 72.8494 15.224C72.5694 15.7653 72.4294 16.3953 72.4294 17.114C72.4294 17.8327 72.5694 18.4673 72.8494 19.018C73.1388 19.5593 73.5354 19.9793 74.0394 20.278C74.5434 20.5673 75.1174 20.712 75.7614 20.712ZM89.288 14.286V22H87.692V21.09C87.44 21.4073 87.1086 21.6593 86.698 21.846C86.2966 22.0233 85.8673 22.112 85.41 22.112C84.8033 22.112 84.2573 21.986 83.772 21.734C83.296 21.482 82.918 21.1087 82.638 20.614C82.3673 20.1193 82.232 19.522 82.232 18.822V14.286H83.814V18.584C83.814 19.2747 83.9866 19.8067 84.332 20.18C84.6773 20.544 85.1486 20.726 85.746 20.726C86.3433 20.726 86.8146 20.544 87.16 20.18C87.5146 19.8067 87.692 19.2747 87.692 18.584V14.286H89.288ZM93.2558 15.588V19.858C93.2558 20.1473 93.3211 20.3573 93.4518 20.488C93.5918 20.6093 93.8251 20.67 94.1518 20.67H95.1318V22H93.8718C93.1531 22 92.6024 21.832 92.2198 21.496C91.8371 21.16 91.6458 20.614 91.6458 19.858V15.588H90.7358V14.286H91.6458V12.368H93.2558V14.286H95.1318V15.588H93.2558Z" fill="#FF1B22"/>
<path d="M13 11.8C13 11.3226 13.1896 10.8648 13.5272 10.5272C13.8648 10.1896 14.3226 10 14.8 10H22.9001C23.3775 10 23.8353 10.1896 24.1729 10.5272C24.5105 10.8648 24.7001 11.3226 24.7001 11.8V13.6C24.7001 13.8387 24.6053 14.0677 24.4365 14.2364C24.2677 14.4052 24.0388 14.5 23.8001 14.5C23.5614 14.5 23.3325 14.4052 23.1637 14.2364C22.9949 14.0677 22.9001 13.8387 22.9001 13.6V11.8H14.8V22.6001H22.9001V20.8001C22.9001 20.5614 22.9949 20.3325 23.1637 20.1637C23.3325 19.9949 23.5614 19.9001 23.8001 19.9001C24.0388 19.9001 24.2677 19.9949 24.4365 20.1637C24.6053 20.3325 24.7001 20.5614 24.7001 20.8001V22.6001C24.7001 23.0775 24.5105 23.5354 24.1729 23.8729C23.8353 24.2105 23.3775 24.4002 22.9001 24.4002H14.8C14.3226 24.4002 13.8648 24.2105 13.5272 23.8729C13.1896 23.5354 13 23.0775 13 22.6001V11.8ZM26.7638 13.8637C26.9326 13.695 27.1615 13.6002 27.4002 13.6002C27.6388 13.6002 27.8677 13.695 28.0365 13.8637L30.7365 16.5638C30.9052 16.7325 31 16.9614 31 17.2001C31 17.4387 30.9052 17.6676 30.7365 17.8364L28.0365 20.5364C27.8667 20.7004 27.6394 20.7911 27.4034 20.789C27.1674 20.787 26.9417 20.6923 26.7748 20.5254C26.6079 20.3586 26.5133 20.1328 26.5112 19.8969C26.5092 19.6609 26.5999 19.4335 26.7638 19.2638L27.9276 18.1001H19.3001C19.0614 18.1001 18.8324 18.0053 18.6637 17.8365C18.4949 17.6677 18.4001 17.4388 18.4001 17.2001C18.4001 16.9614 18.4949 16.7325 18.6637 16.5637C18.8324 16.3949 19.0614 16.3001 19.3001 16.3001H27.9276L26.7638 15.1364C26.5951 14.9676 26.5003 14.7387 26.5003 14.5C26.5003 14.2614 26.5951 14.0325 26.7638 13.8637Z" fill="#FF0000"/>
</svg>
