<svg width="57" height="60" viewBox="0 0 57 60" fill="none" xmlns="http://www.w3.org/2000/svg">
<g filter="url(#filter0_dd_348_595)">
<g clip-path="url(#clip0_348_595)">
<rect width="35" height="38" rx="17.5" transform="matrix(-1 0 0 1 46 7)" fill="white"/>
<rect width="93.962" height="26.962" transform="translate(-50.962 13)" fill="white"/>
<path d="M35.3166 22.6089C34.9913 26.1728 35.9677 26.8208 36.2935 29.0888C39.8201 33.9487 29.0192 33.4529 28.5887 33.4627C27.9968 33.4762 15.4047 33.9487 20.0112 29.0888C20.3369 26.8208 21.3137 26.1728 20.9881 22.6089C20.9881 18.6722 24.1957 15.481 28.1524 15.481C32.1091 15.481 35.3166 18.6722 35.3166 22.6089Z" fill="#0075FF"/>
<path d="M31.8574 34.8006C31.8574 35.6531 31.451 36.4706 30.7276 37.0734C30.0043 37.6762 29.0232 38.0149 28.0002 38.0149C26.9772 38.0149 25.9962 37.6762 25.2728 37.0734C24.5494 36.4706 24.1431 35.6531 24.1431 34.8006L28.0002 34.8006H31.8574Z" fill="#0075FF"/>
</g>
</g>
<defs>
<filter id="filter0_dd_348_595" x="0" y="0" width="57" height="60" filterUnits="userSpaceOnUse" color-interpolation-filters="sRGB">
<feFlood flood-opacity="0" result="BackgroundImageFix"/>
<feColorMatrix in="SourceAlpha" type="matrix" values="0 0 0 0 0 0 0 0 0 0 0 0 0 0 0 0 0 0 127 0" result="hardAlpha"/>
<feOffset dy="4"/>
<feGaussianBlur stdDeviation="5.5"/>
<feComposite in2="hardAlpha" operator="out"/>
<feColorMatrix type="matrix" values="0 0 0 0 0.875 0 0 0 0 0.95625 0 0 0 0 1 0 0 0 0.68 0"/>
<feBlend mode="normal" in2="BackgroundImageFix" result="effect1_dropShadow_348_595"/>
<feColorMatrix in="SourceAlpha" type="matrix" values="0 0 0 0 0 0 0 0 0 0 0 0 0 0 0 0 0 0 127 0" result="hardAlpha"/>
<feOffset dy="4"/>
<feGaussianBlur stdDeviation="2"/>
<feComposite in2="hardAlpha" operator="out"/>
<feColorMatrix type="matrix" values="0 0 0 0 0 0 0 0 0 0 0 0 0 0 0 0 0 0 0.04 0"/>
<feBlend mode="normal" in2="effect1_dropShadow_348_595" result="effect2_dropShadow_348_595"/>
<feBlend mode="normal" in="SourceGraphic" in2="effect2_dropShadow_348_595" result="shape"/>
</filter>
<clipPath id="clip0_348_595">
<rect width="35" height="38" rx="17.5" transform="matrix(-1 0 0 1 46 7)" fill="white"/>
</clipPath>
</defs>
</svg>
