<svg width="58" height="58" viewBox="0 0 58 58" fill="none" xmlns="http://www.w3.org/2000/svg">
<circle opacity="0.1" cx="29" cy="29" r="29" fill="#92D6FF"/>
<path d="M42 45C42 41.8174 40.683 38.7652 38.3388 36.5147C35.9946 34.2643 32.8152 33 29.5 33C26.1848 33 23.0054 34.2643 20.6612 36.5147C18.317 38.7652 17 41.8174 17 45L29.5 45H42Z" fill="#0075FF"/>
<path d="M30.125 17.875L22.625 22L17 17.875L30.125 11L42 17.875L36.375 22L30.125 17.875Z" fill="#0075FF" stroke="#0075FF"/>
<ellipse cx="30" cy="23.5" rx="8" ry="6.5" fill="#F4FBFF"/>
<circle cx="30" cy="25" r="6" fill="#0075FF"/>
<path d="M39 17C39.8333 17.7407 41.5 19.4444 41.5 20.3333C41.5 21.2222 41.5 23.6667 41.5 24.7778C41.5 25.5185 42 27 44 27" stroke="#0075FF" stroke-width="1.5"/>
</svg>
