<svg width="21" height="15" viewBox="0 0 21 15" fill="none" xmlns="http://www.w3.org/2000/svg">
<path d="M1 3.00104C1 1.89647 1.89543 1 3 1H13.0822C14.1867 1 15.0822 1.89543 15.0822 3V11.512C15.0822 12.6166 14.1867 13.512 13.0822 13.512H3C1.89543 13.512 1 12.6155 1 11.511C1 8.41786 1 6.09416 1 3.00104Z" stroke="#CCCCCC" stroke-width="2" stroke-miterlimit="10"/>
<path d="M15.958 10.0863C15.6501 9.90731 15.4606 9.57801 15.4606 9.22183V5.09415C15.4606 4.73796 15.6501 4.40866 15.958 4.22964L18.4974 2.75325C19.1641 2.36566 20 2.84662 20 3.61776V10.6982C20 11.4694 19.1641 11.9503 18.4974 11.5627L15.958 10.0863Z" stroke="#CCCCCC" stroke-width="2" stroke-miterlimit="10"/>
</svg>
