<svg width="42" height="42" viewBox="0 0 42 42" fill="none" xmlns="http://www.w3.org/2000/svg">
<g filter="url(#filter0_d_602_923)">
<path d="M21 35C28.732 35 35 28.732 35 21C35 13.268 28.732 7 21 7C13.268 7 7 13.268 7 21C7 28.732 13.268 35 21 35Z" fill="#0075FF"/>
</g>
<path d="M22.7641 26.9919C22.4981 26.9919 22.2321 26.8939 22.0221 26.6839L17.0801 21.7419C16.6741 21.3359 16.6741 20.6639 17.0801 20.2579L22.0221 15.3159C22.4281 14.9099 23.1001 14.9099 23.5061 15.3159C23.9121 15.7219 23.9121 16.3939 23.5061 16.7999L19.3061 20.9999L23.5061 25.1999C23.9121 25.6059 23.9121 26.2779 23.5061 26.6839C23.3101 26.8939 23.0441 26.9919 22.7641 26.9919Z" fill="white"/>
<defs>
<filter id="filter0_d_602_923" x="0" y="0" width="42" height="42" filterUnits="userSpaceOnUse" color-interpolation-filters="sRGB">
<feFlood flood-opacity="0" result="BackgroundImageFix"/>
<feColorMatrix in="SourceAlpha" type="matrix" values="0 0 0 0 0 0 0 0 0 0 0 0 0 0 0 0 0 0 127 0" result="hardAlpha"/>
<feOffset/>
<feGaussianBlur stdDeviation="3.5"/>
<feComposite in2="hardAlpha" operator="out"/>
<feColorMatrix type="matrix" values="0 0 0 0 0 0 0 0 0 0 0 0 0 0 0 0 0 0 0.25 0"/>
<feBlend mode="normal" in2="BackgroundImageFix" result="effect1_dropShadow_602_923"/>
<feBlend mode="normal" in="SourceGraphic" in2="effect1_dropShadow_602_923" result="shape"/>
</filter>
</defs>
</svg>
