<svg width="27" height="21" viewBox="0 0 27 21" fill="none" xmlns="http://www.w3.org/2000/svg">
<path d="M23.7767 14.2689C24.9624 15.4546 25.7154 16.9923 25.9339 18.6364H18.4091L10.8843 18.6364C11.1028 16.9923 11.8557 15.4546 13.0415 14.2689C14.4651 12.8453 16.3959 12.0455 18.4091 12.0455C20.4223 12.0455 22.3531 12.8453 23.7767 14.2689Z" stroke="#CCCCCC" stroke-width="2"/>
<path d="M20.8636 20.8637C20.8636 18.2598 19.8292 15.7625 17.9879 13.9212C16.1467 12.0799 13.6494 11.0455 11.0454 11.0455C8.44147 11.0455 5.94418 12.0799 4.10291 13.9212C2.26165 15.7625 1.22723 18.2598 1.22723 20.8637L11.0454 20.8637H20.8636Z" fill="white"/>
<circle cx="17.7955" cy="5.52275" r="3.29545" stroke="#CCCCCC" stroke-width="2"/>
<path d="M16.0536 14.6283C17.4699 16.0446 18.3546 17.8931 18.5795 19.8637H9.81818L1.05685 19.8637C1.28173 17.893 2.1665 16.0446 3.58279 14.6283C5.23652 12.9746 7.47946 12.0455 9.81818 12.0455C12.1569 12.0455 14.3998 12.9746 16.0536 14.6283Z" stroke="#CCCCCC" stroke-width="2"/>
<circle cx="11.0454" cy="4.90909" r="4.90909" fill="white"/>
<circle cx="9.81815" cy="4.90909" r="3.90909" stroke="#CCCCCC" stroke-width="2"/>
</svg>
