<svg width="62" height="63" viewBox="0 0 62 63" fill="none" xmlns="http://www.w3.org/2000/svg">
<circle opacity="0.1" cx="32" cy="31" r="30" fill="#92D6FF"/>
<path d="M50.6486 43.1621C50.6486 40.1516 49.4527 37.2643 47.3239 35.1355C45.1951 33.0067 42.3078 31.8108 39.2973 31.8108C36.2867 31.8108 33.3994 33.0067 31.2707 35.1355C29.1419 37.2643 27.9459 40.1516 27.9459 43.1621L39.2973 43.1621H50.6486Z" fill="#0075FF"/>
<path d="M42.5406 44.7838C42.5406 41.3431 41.1738 38.0434 38.7409 35.6105C36.308 33.1776 33.0082 31.8108 29.5676 31.8108C26.1269 31.8108 22.8272 33.1776 20.3943 35.6105C17.9614 38.0434 16.5946 41.3431 16.5946 44.7838L29.5676 44.7838H42.5406Z" fill="#F4FBFF"/>
<circle cx="38.4865" cy="24.5136" r="5.67568" fill="#0075FF"/>
<path d="M40.9189 44.7838C40.9189 41.3431 39.5521 38.0434 37.1192 35.6105C34.6863 33.1776 31.3866 31.8108 27.9459 31.8108C24.5053 31.8108 21.2056 33.1776 18.7727 35.6105C16.3398 38.0434 14.973 41.3431 14.973 44.7838L27.9459 44.7838H40.9189Z" fill="#0075FF"/>
<circle cx="29.5675" cy="23.7027" r="6.48649" fill="#F4FBFF"/>
<circle cx="27.946" cy="23.7027" r="6.48649" fill="#0075FF"/>
</svg>
