<svg width="119" height="119" viewBox="0 0 119 119" fill="none" xmlns="http://www.w3.org/2000/svg">
<circle cx="59.5" cy="59.5" r="56.3054" fill="#FAFAFA"/>
<circle cx="59.5" cy="59.5" r="37.1376" fill="white"/>
<mask id="mask0_365_2386" style="mask-type:alpha" maskUnits="userSpaceOnUse" x="-1" y="0" width="120" height="120">
<path d="M59.5 0C74.4219 1.77942e-07 88.7991 5.60683 99.7814 15.709C110.764 25.8111 117.549 39.671 118.793 54.541C120.037 69.411 115.648 84.2055 106.496 95.9916C97.3442 107.778 84.0981 115.695 69.3835 118.173C54.6688 120.652 39.56 117.511 27.0522 109.374C14.5445 101.236 5.55089 88.696 1.85447 74.2392C-1.84195 59.7823 0.0286466 44.4643 7.09542 31.3218C14.1622 18.1793 25.9092 8.17191 40.0077 3.28346L42.6009 10.7625C30.3781 15.0006 20.1939 23.6766 14.0673 35.0706C7.94069 46.4646 6.31896 59.7448 9.52361 72.2783C12.7283 84.8118 20.5253 95.6837 31.3691 102.739C42.2128 109.793 55.3116 112.516 68.0686 110.368C80.8256 108.219 92.3094 101.355 100.244 91.1367C108.178 80.9187 111.983 68.0925 110.905 55.2008C109.826 42.309 103.944 30.2931 94.4224 21.5349C84.9012 12.7768 72.4367 7.91586 59.5 7.91586L59.5 0Z" fill="#D9D9D9"/>
</mask>
<g mask="url(#mask0_365_2386)">
<rect width="119" height="119" fill="url(#paint0_linear_365_2386)"/>
</g>
<path d="M48.87 62.31C48.966 62.838 49.182 63.246 49.518 63.534C49.866 63.81 50.328 63.948 50.904 63.948C51.648 63.948 52.188 63.642 52.524 63.03C52.86 62.406 53.028 61.362 53.028 59.898C52.752 60.282 52.362 60.582 51.858 60.798C51.366 61.014 50.832 61.122 50.256 61.122C49.488 61.122 48.792 60.966 48.168 60.654C47.556 60.33 47.07 59.856 46.71 59.232C46.35 58.596 46.17 57.828 46.17 56.928C46.17 55.596 46.566 54.54 47.358 53.76C48.15 52.968 49.23 52.572 50.598 52.572C52.302 52.572 53.502 53.118 54.198 54.21C54.906 55.302 55.26 56.946 55.26 59.142C55.26 60.702 55.122 61.98 54.846 62.976C54.582 63.972 54.12 64.728 53.46 65.244C52.812 65.76 51.924 66.018 50.796 66.018C49.908 66.018 49.152 65.85 48.528 65.514C47.904 65.166 47.424 64.716 47.088 64.164C46.764 63.6 46.578 62.982 46.53 62.31H48.87ZM50.778 59.07C51.402 59.07 51.894 58.878 52.254 58.494C52.614 58.11 52.794 57.594 52.794 56.946C52.794 56.238 52.602 55.692 52.218 55.308C51.846 54.912 51.336 54.714 50.688 54.714C50.04 54.714 49.524 54.918 49.14 55.326C48.768 55.722 48.582 56.25 48.582 56.91C48.582 57.546 48.762 58.068 49.122 58.476C49.494 58.872 50.046 59.07 50.778 59.07ZM66.0416 55.056H60.2096V58.134C60.4616 57.822 60.8216 57.57 61.2896 57.378C61.7576 57.174 62.2556 57.072 62.7836 57.072C63.7436 57.072 64.5296 57.282 65.1416 57.702C65.7536 58.122 66.1976 58.662 66.4736 59.322C66.7496 59.97 66.8876 60.666 66.8876 61.41C66.8876 62.79 66.4916 63.9 65.6996 64.74C64.9196 65.58 63.8036 66 62.3516 66C60.9836 66 59.8916 65.658 59.0756 64.974C58.2596 64.29 57.7976 63.396 57.6896 62.292H60.1376C60.2456 62.772 60.4856 63.156 60.8576 63.444C61.2416 63.732 61.7276 63.876 62.3156 63.876C63.0236 63.876 63.5576 63.654 63.9176 63.21C64.2776 62.766 64.4576 62.178 64.4576 61.446C64.4576 60.702 64.2716 60.138 63.8996 59.754C63.5396 59.358 63.0056 59.16 62.2976 59.16C61.7936 59.16 61.3736 59.286 61.0376 59.538C60.7016 59.79 60.4616 60.126 60.3176 60.546H57.9056V52.842H66.0416V55.056ZM68.5176 56.1C68.5176 55.188 68.7816 54.474 69.3096 53.958C69.8496 53.442 70.5396 53.184 71.3796 53.184C72.2196 53.184 72.9036 53.442 73.4316 53.958C73.9716 54.474 74.2416 55.188 74.2416 56.1C74.2416 57.024 73.9716 57.744 73.4316 58.26C72.9036 58.776 72.2196 59.034 71.3796 59.034C70.5396 59.034 69.8496 58.776 69.3096 58.26C68.7816 57.744 68.5176 57.024 68.5176 56.1ZM80.0736 53.4L72.9996 66H70.5516L77.6076 53.4H80.0736ZM71.3616 54.696C70.7016 54.696 70.3716 55.164 70.3716 56.1C70.3716 57.048 70.7016 57.522 71.3616 57.522C71.6856 57.522 71.9376 57.408 72.1176 57.18C72.2976 56.94 72.3876 56.58 72.3876 56.1C72.3876 55.164 72.0456 54.696 71.3616 54.696ZM76.4196 63.282C76.4196 62.358 76.6836 61.644 77.2116 61.14C77.7516 60.624 78.4416 60.366 79.2816 60.366C80.1216 60.366 80.7996 60.624 81.3156 61.14C81.8436 61.644 82.1076 62.358 82.1076 63.282C82.1076 64.206 81.8436 64.926 81.3156 65.442C80.7996 65.958 80.1216 66.216 79.2816 66.216C78.4296 66.216 77.7396 65.958 77.2116 65.442C76.6836 64.926 76.4196 64.206 76.4196 63.282ZM79.2636 61.878C78.5796 61.878 78.2376 62.346 78.2376 63.282C78.2376 64.23 78.5796 64.704 79.2636 64.704C79.9356 64.704 80.2716 64.23 80.2716 63.282C80.2716 62.346 79.9356 61.878 79.2636 61.878Z" fill="#0075FF"/>
<defs>
<linearGradient id="paint0_linear_365_2386" x1="-8.86619e-07" y1="59.5" x2="119" y2="59.5" gradientUnits="userSpaceOnUse">
<stop stop-color="#00CDDB"/>
<stop offset="0.249976" stop-color="#019DF1"/>
<stop offset="0.482619" stop-color="#047AFD"/>
<stop offset="0.652076" stop-color="#2C50E2"/>
<stop offset="0.815788" stop-color="#5329CA"/>
<stop offset="1" stop-color="#6913BE"/>
</linearGradient>
</defs>
</svg>
