<svg width="19" height="19" viewBox="0 0 19 19" fill="none" xmlns="http://www.w3.org/2000/svg">
<path d="M7.52848 0C8.08572 0 8.59024 0.294 8.86886 0.728C9.0044 0.938 9.09477 1.197 9.07218 1.47C9.05712 1.68 9.12489 1.89 9.24537 2.086C9.62941 2.681 10.4803 2.905 11.143 2.569C11.8885 2.163 12.8298 2.408 13.259 3.101L13.7635 3.927C14.2002 4.62 13.9593 5.509 13.2063 5.908C12.5662 6.265 12.3403 7.056 12.7243 7.658C12.8448 7.847 12.9804 8.008 13.1912 8.106C13.4548 8.239 13.6581 8.449 13.8011 8.659C14.0798 9.093 14.0572 9.625 13.7861 10.094L13.259 10.934C12.9804 11.382 12.4608 11.662 11.9261 11.662C11.6626 11.662 11.3689 11.592 11.1279 11.452C10.9321 11.333 10.7062 11.291 10.4653 11.291C9.71977 11.291 9.09477 11.872 9.07218 12.565C9.07218 13.37 8.3794 14 7.51342 14H6.48931C5.61581 14 4.92303 13.37 4.92303 12.565C4.90797 11.872 4.28296 11.291 3.53747 11.291C3.28897 11.291 3.06307 11.333 2.87481 11.452C2.63384 11.592 2.33264 11.662 2.07661 11.662C1.53443 11.662 1.01485 11.382 0.736231 10.934L0.216646 10.094C-0.0619717 9.639 -0.0770321 9.093 0.201586 8.659C0.322069 8.449 0.547976 8.239 0.804003 8.106C1.01485 8.008 1.15039 7.847 1.27841 7.658C1.65492 7.056 1.42901 6.265 0.788942 5.908C0.0434513 5.509 -0.197516 4.62 0.231707 3.927L0.736231 3.101C1.17298 2.408 2.10673 2.163 2.85975 2.569C3.51488 2.905 4.36579 2.681 4.74983 2.086C4.87032 1.89 4.93809 1.68 4.92303 1.47C4.90797 1.197 4.9908 0.938 5.13387 0.728C5.41249 0.294 5.91702 0.014 6.46672 0H7.52848ZM7.0089 5.026C5.82665 5.026 4.87032 5.908 4.87032 7.007C4.87032 8.106 5.82665 8.981 7.0089 8.981C8.19114 8.981 9.12489 8.106 9.12489 7.007C9.12489 5.908 8.19114 5.026 7.0089 5.026Z" fill="#CCCCCC"/>
<circle cx="13" cy="13" r="6" fill="white"/>
<path d="M13.8397 8C14.198 8 14.5223 8.189 14.7014 8.468C14.7885 8.603 14.8466 8.7695 14.8321 8.945C14.8224 9.08 14.866 9.215 14.9435 9.341C15.1903 9.7235 15.7374 9.8675 16.1633 9.6515C16.6426 9.3905 17.2477 9.548 17.5236 9.9935L17.848 10.5245C18.1287 10.97 17.9738 11.5415 17.4897 11.798C17.0783 12.0275 16.933 12.536 17.1799 12.923C17.2574 13.0445 17.3445 13.148 17.4801 13.211C17.6495 13.2965 17.7802 13.4315 17.8722 13.5665C18.0513 13.8455 18.0368 14.1875 17.8625 14.489L17.5236 15.029C17.3445 15.317 17.0105 15.497 16.6668 15.497C16.4974 15.497 16.3086 15.452 16.1537 15.362C16.0278 15.2855 15.8826 15.2585 15.7277 15.2585C15.2484 15.2585 14.8466 15.632 14.8321 16.0775C14.8321 16.595 14.3868 17 13.8301 17H13.1717C12.6102 17 12.1648 16.595 12.1648 16.0775C12.1551 15.632 11.7533 15.2585 11.2741 15.2585C11.1143 15.2585 10.9691 15.2855 10.8481 15.362C10.6932 15.452 10.4996 15.497 10.335 15.497C9.98642 15.497 9.6524 15.317 9.47329 15.029L9.13927 14.489C8.96016 14.1965 8.95048 13.8455 9.12959 13.5665C9.20704 13.4315 9.35227 13.2965 9.51686 13.211C9.6524 13.148 9.73954 13.0445 9.82183 12.923C10.0639 12.536 9.91865 12.0275 9.50718 11.798C9.02793 11.5415 8.87303 10.97 9.14895 10.5245L9.47329 9.9935C9.75406 9.548 10.3543 9.3905 10.8384 9.6515C11.2596 9.8675 11.8066 9.7235 12.0535 9.341C12.1309 9.215 12.1745 9.08 12.1648 8.945C12.1551 8.7695 12.2084 8.603 12.3003 8.468C12.4795 8.189 12.8038 8.009 13.1572 8H13.8397ZM13.5057 11.231C12.7457 11.231 12.1309 11.798 12.1309 12.5045C12.1309 13.211 12.7457 13.7735 13.5057 13.7735C14.2657 13.7735 14.866 13.211 14.866 12.5045C14.866 11.798 14.2657 11.231 13.5057 11.231Z" fill="#CCCCCC"/>
</svg>
