<svg width="26" height="23" viewBox="0 0 26 23" fill="none" xmlns="http://www.w3.org/2000/svg">
<path d="M5.45114 9.41152C4.87435 9.4172 4.41237 8.93504 4.44269 8.35901L4.74141 2.68341C4.789 1.77908 5.9181 1.39867 6.50324 2.08983L11.2661 7.71564C11.8133 8.36199 11.3596 9.35341 10.5128 9.36174L5.45114 9.41152Z" fill="#0075FF"/>
<path d="M6.74082 4.7346C8.14499 3.13837 9.98163 1.98323 12.0285 1.40895C14.0754 0.834659 16.2449 0.865826 18.2745 1.49868C20.3041 2.13153 22.1067 3.33895 23.4645 4.97486C24.8222 6.61077 25.6768 8.60507 25.9249 10.7165C26.1729 12.8279 25.8038 14.966 24.8622 16.872C23.9206 18.7781 22.4468 20.3704 20.6192 21.4564C18.7916 22.5425 16.6884 23.0756 14.5641 22.9914C12.4399 22.9071 10.3855 22.2091 8.64962 20.9818L10.2328 18.7427C11.5359 19.664 13.0781 20.188 14.6728 20.2512C16.2675 20.3145 17.8464 19.9142 19.2184 19.099C20.5904 18.2837 21.6967 17.0883 22.4036 15.6574C23.1105 14.2266 23.3875 12.6215 23.2013 11.0365C23.0151 9.45142 22.3736 7.95429 21.3543 6.72621C20.335 5.49813 18.9818 4.59172 17.4582 4.11664C15.9346 3.64155 14.3059 3.61816 12.7693 4.04927C11.2327 4.48039 9.85393 5.34756 8.79982 6.54585L6.74082 4.7346Z" fill="#0075FF"/>
<path d="M15 8V13L18 15" stroke="#0075FF" stroke-width="2" stroke-linecap="round"/>
</svg>
